<svg xmlns="http://www.w3.org/2000/svg" width="48" height="34.254" viewBox="0 0 48 34.254">
  <path id="upwork-icon" d="M37.115,14.066c-5.145.025-9.055,3.427-10.519,8.85a47.792,47.792,0,0,1-5.471-11.754l-5.415.026.075,14.353a5.146,5.146,0,1,1-10.291.049L5.418,11.236,0,11.262.075,25.617a10.561,10.561,0,1,0,21.12-.1l-.011-2.437a45.983,45.983,0,0,0,3.957,6.48L21.829,45.416l5.55-.026,2.385-11.521A13.718,13.718,0,0,0,37.219,36a10.969,10.969,0,0,0-.1-21.935Zm.077,16.384a9.636,9.636,0,0,1-6.1-2.41l.531-2.175v-.136c.4-2.305,1.594-6.237,5.656-6.255a5.433,5.433,0,0,1,5.443,5.391,5.762,5.762,0,0,1-5.527,5.578Z" transform="translate(0 -11.162)" fill="#fff"/>
</svg>
