<svg xmlns="http://www.w3.org/2000/svg" width="42" height="42" viewBox="0 0 42 42"><g transform="translate(30.275 37.745)"><path d="M35.16,42H6.84A6.848,6.848,0,0,1,0,35.16V6.84A6.848,6.848,0,0,1,6.84,0H35.16A6.848,6.848,0,0,1,42,6.84V35.16A6.848,6.848,0,0,1,35.16,42Zm-9.433-9.11v3.323a7.061,7.061,0,0,0,1.917.623,12.636,12.636,0,0,0,2.333.208,10.921,10.921,0,0,0,2.269-.229,5.57,5.57,0,0,0,1.886-.753,3.845,3.845,0,0,0,1.283-1.371,4.826,4.826,0,0,0,.2-3.676,3.707,3.707,0,0,0-.779-1.21,5.719,5.719,0,0,0-1.221-.95,12.916,12.916,0,0,0-1.605-.794c-.434-.18-.829-.356-1.174-.525a6.008,6.008,0,0,1-.883-.519,2.286,2.286,0,0,1-.561-.561,1.189,1.189,0,0,1-.2-.67,1.123,1.123,0,0,1,.176-.618,1.544,1.544,0,0,1,.5-.473,2.687,2.687,0,0,1,.789-.306,4.61,4.61,0,0,1,1.039-.11,6.678,6.678,0,0,1,.878.063,6.885,6.885,0,0,1,.93.192,6.514,6.514,0,0,1,.908.327,5.066,5.066,0,0,1,.816.457V22.215a8.142,8.142,0,0,0-1.657-.431,13.573,13.573,0,0,0-2.062-.14,9.629,9.629,0,0,0-2.244.254,5.738,5.738,0,0,0-1.865.794,4,4,0,0,0-1.273,1.376,4.055,4.055,0,0,0-.468,2,3.9,3.9,0,0,0,.857,2.534,6.556,6.556,0,0,0,2.6,1.776c.471.194.889.374,1.277.551a7.077,7.077,0,0,1,1.023.56,2.689,2.689,0,0,1,.68.634,1.3,1.3,0,0,1,.25.779,1.2,1.2,0,0,1-.156.6,1.38,1.38,0,0,1-.472.478,2.627,2.627,0,0,1-.79.317,4.762,4.762,0,0,1-1.106.114,6.356,6.356,0,0,1-2.141-.379A6.424,6.424,0,0,1,25.727,32.89ZM12.521,21.976V24.7h4.242V36.846H20.14V24.7H24.4V21.976Z" transform="translate(-30.275 -37.745)" fill="#dfe3e3"/></g></svg>